<?xml version="1.0" encoding="utf-8"?>
<!-- Generator: Adobe Illustrator 18.0.0, SVG Export Plug-In . SVG Version: 6.00 Build 0)  -->
<!DOCTYPE svg PUBLIC "-//W3C//DTD SVG 1.1//EN" "http://www.w3.org/Graphics/SVG/1.1/DTD/svg11.dtd">
<svg version="1.1" id="图层_1" xmlns="http://www.w3.org/2000/svg" xmlns:xlink="http://www.w3.org/1999/xlink" x="0px" y="0px"
	 viewBox="0 0 196.5 88" enable-background="new 0 0 196.5 88" xml:space="preserve">
<g>
	<polygon fill="#72E49B" points="137.7,63.8 152.6,63.8 154.5,42.3 139.7,42.3 	"/>
	<polygon fill="#72E49B" points="116.2,64 130.5,64 135.1,42.3 120.9,42.3 	"/>
	<polygon fill="#72E49B" points="160.1,42.3 160.9,64 175.1,64 174.3,42.3 	"/>
	<polygon fill="#72E49B" points="33.3,64 47.5,64 52.1,42.3 37.9,42.3 	"/>
	<polygon fill="#72E49B" points="89.1,42.3 74.9,42.3 75.7,64 89.9,64 	"/>
	<polygon fill="#72E49B" points="114.9,23.2 112.4,8.2 98.2,8.2 100.8,23.2 	"/>
	<polygon fill="#72E49B" points="96.7,25.2 99.3,40.2 113.4,40.2 110.8,25.2 	"/>
	<polygon fill="#72E49B" points="94.1,64.3 89.7,67.4 92.6,71 104.1,84.7 113.2,42.3 99.1,42.3 	"/>
	<path fill="#72E49B" d="M93.6,34.3h-5.8l1.5-16.4H95L93.9,12h-4.1l0.3-3.6H75.3L75,12H57.7l0.3-3.6H43.1L42.8,12h-11l1,5.9h9.6
		l-1.3,16.4h-9.9l0.7,5.9h63.1L93.6,34.3z M57.2,17.9h17.3L73,34.3H56L57.2,17.9z"/>
	<polygon fill="#72E49B" points="157.4,12 157.7,8.2 144.3,8.2 144,12 115.3,12 116.3,17.9 121.8,17.9 120.7,34.3 114.5,34.3 
		115.3,40.2 163.9,40.2 168.2,40.2 177.6,40.2 176,25.2 162.3,25.2 163.3,34.3 134.7,34.3 135.8,17.9 172.7,17.9 173.4,17.9 
		175.2,20.1 177.8,17.9 177.8,17.9 186.2,12 	"/>
	<polygon fill="#72E49B" points="18.2,23.3 32.3,23.3 29.7,8.3 15.6,8.3 12.6,8.3 16.3,12.6 	"/>
	<polygon fill="#72E49B" points="14.1,25.2 16.6,40.2 30.8,40.2 28.2,25.2 	"/>
	<polygon fill="#72E49B" points="11.5,64.2 25.8,64.2 30.6,42.3 16.5,42.3 	"/>
</g>
</svg>
